# xmcd CD database file generated by LOLA_Freedb v0.9beta0
# 
# Track frame offsets:
#      150
#      12771
#      26025
#      43769
#      67420
#      84409
#      104013
#      123338
#      140915
#      159770
#      175361
#      190826
#      216128
#      233542
# 
# Disc length: 3320 seconds
# 
# Revision: 1 
# Processed by: cddbd v1.5.2PL0 Copyright (c) Steve Scherf et al.
# Submitted via: LOLA_Freedb v0.9beta0
# 
DISCID=c30cf60e
DTITLE=DIRX - TAPES
DYEAR=2007
DGENRE=
TTITLE0=DIRX - Let's Walk Together Remake
TTITLE1=DIRX - What A Life
TTITLE2=DIRX - Forecast
TTITLE3=DIRX - Crying Blues
TTITLE4=DIRX - It's Not That Easy
TTITLE5=DIRX - Lie No. One
TTITLE6=DIRX - Taxman
TTITLE7=DIRX - Ain't No Sunshine
TTITLE8=DIRX - Summertime
TTITLE9=DIRX - War Lullaby
TTITLE10=DIRX - Healthcare
TTITLE11=DIRX - All Right Now
TTITLE12=DIRX - There Was No Party
TTITLE13=DIRX - Let's Walk Together
EXTD=
EXTT0=
EXTT1=
EXTT2=
EXTT3=
EXTT4=
EXTT5=
EXTT6=
EXTT7=
EXTT8=
EXTT9=
EXTT10=
EXTT11=
EXTT12=
EXTT13=
PLAYORDER=
